<mxfile host="65bd71144e">
    <diagram id="89MTW7kyhzR2EV8BPw9v" name="Page-1">
        <mxGraphModel dx="832" dy="1561" grid="1" gridSize="10" guides="1" tooltips="1" connect="1" arrows="1" fold="1" page="1" pageScale="1" pageWidth="850" pageHeight="1100" math="0" shadow="0">
            <root>
                <mxCell id="0"/>
                <mxCell id="1" parent="0"/>
                <mxCell id="2" value="Database" style="shape=cylinder3;whiteSpace=wrap;html=1;boundedLbl=1;backgroundOutline=1;size=15;fillColor=#0050ef;fontColor=#ffffff;strokeColor=#001DBC;" vertex="1" parent="1">
                    <mxGeometry x="440" y="-320" width="60" height="80" as="geometry"/>
                </mxCell>
                <mxCell id="4" value="Frontend" style="swimlane;whiteSpace=wrap;html=1;" vertex="1" parent="1">
                    <mxGeometry x="80" y="-340" width="140" height="130" as="geometry"/>
                </mxCell>
                <mxCell id="6" value="" style="endArrow=classic;html=1;" edge="1" parent="1" target="2">
                    <mxGeometry width="50" height="50" relative="1" as="geometry">
                        <mxPoint x="230" y="-280.5" as="sourcePoint"/>
                        <mxPoint x="310" y="-280.5" as="targetPoint"/>
                        <Array as="points">
                            <mxPoint x="210" y="-280.5"/>
                        </Array>
                    </mxGeometry>
                </mxCell>
                <mxCell id="7" value="Backend" style="swimlane;whiteSpace=wrap;html=1;" vertex="1" parent="1">
                    <mxGeometry x="670" y="-410" width="200" height="200" as="geometry"/>
                </mxCell>
                <mxCell id="8" value="" style="curved=1;endArrow=classic;html=1;" edge="1" parent="1" target="7">
                    <mxGeometry width="50" height="50" relative="1" as="geometry">
                        <mxPoint x="500" y="-270" as="sourcePoint"/>
                        <mxPoint x="550" y="-320" as="targetPoint"/>
                        <Array as="points">
                            <mxPoint x="480" y="-200"/>
                            <mxPoint x="580" y="-290"/>
                            <mxPoint x="500" y="-320"/>
                        </Array>
                    </mxGeometry>
                </mxCell>
            </root>
        </mxGraphModel>
    </diagram>
</mxfile>